<?xml version="1.0" encoding="UTF-8"?><svg id="Layer_2" xmlns="http://www.w3.org/2000/svg" viewBox="0 0 568.93 136.39"><defs><style>.cls-1{fill:#8dc9a5;}.cls-2{fill:#26af75;}</style></defs><g id="Layer_1-2"><path class="cls-2" d="M76.18,78.84c0,8.96-.95,16.17-7.82,22.61-6.14,5.76-13.64,7.76-21.13,8.4-6.55.57-15.09-.42-20.6-4.31-7.59-5.48-9.05-13.6-9.05-23.94l.03-57.06,22.28,1.87-.02,51.7c0,2.78-.11,6.53,1.34,9.01,1.67,2.57,5,3.49,7.81,3.37,2.5-.11,5.62-1.07,7.49-3.03,2.82-2.78,2.5-6.95,2.5-10.67l.02-48.77,17.17,1.44-.02,49.38Z"/><path class="cls-2" d="M103.54,103.61l-20.61,1.69.02-51.61,20.61.65-.02,49.26ZM103.56,48.75l-20.61-.92v-17.81s20.61,1.73,20.61,1.73v17Z"/><polygon class="cls-2" points="144.64 100.57 123.83 102.3 123.85 50.02 108.87 49.36 108.87 32.2 159.35 36.43 159.34 51.57 144.67 50.93 144.64 100.57"/><polygon class="cls-2" points=".06 1.67 220.27 1.77 220.21 134.36 0 134.26 176.18 112.24 176.22 23.84 .06 1.67"/><path class="cls-1" d="M450.12,95.98c7.13,28.79,31.85,40.39,59.68,40.4,27.43.01,59.12-12.72,59.14-44.6,0-14.49-6.75-26.85-19.69-33.81-11.59-6-24.92-8.13-37.47-10.64-5.02-1.16-14.68-2.52-14.68-9.47,0-6.95,7.73-8.5,13.14-8.49,10.24,0,17.58,3.48,21.44,13.34l33.62-10.22C557.18,9.49,534.97.01,511.98,0c-13.14,0-27.24,2.5-38.06,10.03-10.63,7.53-17.01,20.28-17.02,33.22-.01,31.49,29.54,38.26,54.46,43.11,5.99,1.16,16.23,2.71,16.23,10.83,0,7.34-10.44,8.11-15.65,8.11-11.79,0-20.67-4.26-24.14-16.05l-37.67,6.74ZM369.95,79.34l10.84-38.44,10.8,38.45h-21.64ZM406.05,134.41l41.54.02L406.11,1.88l-42.89-.02-41.21,132.51,33.03.02,8.13-26.07,35.36.02,7.52,26.08ZM261.39,57.84v-25.7s11.8,0,11.8,0c9.27,0,19.32.97,19.31,12.76,0,12.36-11.21,12.94-20.48,12.94h-10.62ZM261.38,86.24h20.67c12.75.02,25.89-1.91,36.13-10.21,9.85-7.92,14.69-19.89,14.69-32.45,0-14.29-7.32-27.44-19.69-34.78-11.4-6.58-25.88-6.97-38.83-6.97l-54.09-.02-.06,132.53,41.15.02.02-48.1Z"/></g></svg>